<svg width="140" height="28" viewBox="0 0 140 28" fill="none" xmlns="http://www.w3.org/2000/svg">
<path d="M13.5 24C19.299 24 24 19.299 24 13.5C24 7.70101 19.299 3 13.5 3C7.70101 3 3 7.70101 3 13.5C3 19.299 7.70101 24 13.5 24Z" fill="url(#paint0_linear_73_61)"/>
<path d="M13.5363 8.33782L8.33832 13.535L8.05725 13.2541L13.2569 8.05873L13.538 8.05699L13.5363 8.33782ZM13.2569 8.05873C13.3333 7.98072 13.4599 7.98072 13.538 8.05699C13.6143 8.135 13.6143 8.26155 13.5363 8.33782L13.2569 8.05873ZM18.5104 13.5904L13.2569 8.33956L13.538 8.05699L18.7915 13.3096V13.5904H18.5104ZM18.7915 13.3096C18.8695 13.3876 18.8695 13.5124 18.7915 13.5904C18.7134 13.6684 18.5885 13.6684 18.5104 13.5904L18.7915 13.3096ZM13.3125 18.505L18.5104 13.3096L18.7915 13.5904L13.5935 18.7858H13.3125V18.505ZM13.5935 18.7858C13.5154 18.8638 13.3888 18.8638 13.3125 18.7858C13.2344 18.7095 13.2344 18.583 13.3125 18.505L13.5935 18.7858ZM8.33832 13.2541L13.5935 18.505L13.3125 18.7858L8.05725 13.535V13.2541H8.33832ZM8.05725 13.535C7.98092 13.4569 7.98092 13.3321 8.05725 13.2541C8.13533 13.1761 8.26198 13.1761 8.33832 13.2541L8.05725 13.535Z" fill="#FEFEFE"/>
<path d="M14.5634 12.2903L14.2841 12.5694L14.0637 12.3509L13.8434 12.1395L13.623 11.9332L13.4044 11.7338L13.1876 11.5397L12.9724 11.3507L12.759 11.1704L12.5474 10.9953L12.3392 10.8289L12.1344 10.6677L11.9314 10.5151L11.7337 10.3713L11.5393 10.2326L11.3485 10.1043L11.1646 9.98294L10.9842 9.87026L10.8107 9.76798L10.6424 9.67264L10.481 9.5877L10.3266 9.51142L10.1791 9.44381L10.0386 9.38661L9.90848 9.3398L9.78703 9.3034L9.67599 9.27739L9.57537 9.26006L9.48688 9.25312L9.41054 9.25486L9.34982 9.26353L9.30124 9.27913L9.26654 9.29646L9.23878 9.319L8.95945 9.0399L9.04967 8.96536L9.15203 8.91162L9.26307 8.87868L9.37758 8.86135L9.49903 8.85788L9.62394 8.86828L9.7558 8.88908L9.89113 8.92202L10.0334 8.96536L10.1809 9.01736L10.3353 9.08151L10.4949 9.15258L10.6615 9.23579L10.8315 9.32593L11.0084 9.42474L11.1906 9.53396L11.378 9.6501L11.5688 9.77492L11.7649 9.9084L11.9644 10.0488L12.1674 10.1979L12.3739 10.3539L12.5855 10.5186L12.7972 10.6885L13.0123 10.867L13.2309 11.0508L13.4495 11.2432L13.6699 11.4408L13.892 11.6437L14.1158 11.8534L14.3396 12.0684L14.5634 12.2903ZM17.8147 17.8913L17.5354 17.6105L17.5579 17.5845L17.5753 17.5481L17.5909 17.4995L17.5996 17.4389L17.6013 17.3626L17.5944 17.2742L17.577 17.1736L17.551 17.0627L17.5128 16.9413L17.466 16.8113L17.4105 16.6709L17.3428 16.5253L17.2665 16.3693L17.1814 16.2081L17.086 16.0399L16.9837 15.8665L16.8709 15.6863L16.7494 15.5025L16.6211 15.3118L16.4823 15.1177L16.3383 14.92L16.1856 14.7172L16.0242 14.5127L15.8577 14.3046L15.6824 14.0931L15.502 13.8799L15.3146 13.6632L15.1203 13.4465L14.9191 13.2281L14.7126 13.0097L14.5009 12.7895L14.2841 12.5694L14.5634 12.2903L14.7837 12.5139L14.9989 12.7358L15.2088 12.9594L15.4135 13.1813L15.6113 13.4015L15.8022 13.6216L15.9861 13.8383L16.1648 14.055L16.3348 14.2665L16.4996 14.4763L16.6558 14.6843L16.805 14.8871L16.9455 15.0865L17.0791 15.2823L17.204 15.473L17.3202 15.6603L17.4295 15.8423L17.5284 16.0191L17.6187 16.189L17.7002 16.3554L17.7731 16.5149L17.8355 16.6692L17.8893 16.8165L17.9327 16.9587L17.9656 17.0956L17.9865 17.2256L17.9969 17.3505L17.9934 17.4718L17.9761 17.5879L17.9414 17.6972L17.8876 17.8012L17.8147 17.8913ZM12.2108 14.6409L12.4901 14.3618L12.7104 14.5785L12.9308 14.79L13.1511 14.9963L13.368 15.1974L13.5866 15.3916L13.8017 15.5788L14.0151 15.7608L14.2268 15.9342L14.435 16.1023L14.6397 16.2618L14.8427 16.4143L15.0405 16.56L15.2348 16.6969L15.4239 16.8269L15.6096 16.9465L15.79 17.0592L15.9635 17.1632L16.1318 17.2568L16.2931 17.3435L16.4476 17.4198L16.595 17.4857L16.7338 17.5429L16.8657 17.5897L16.9871 17.6261L17.0982 17.6538L17.1988 17.6694L17.2873 17.6781L17.3619 17.6764L17.4243 17.666L17.4712 17.6521L17.5076 17.633L17.5354 17.6105L17.8147 17.8913L17.7245 17.9641L17.6221 18.0179L17.5111 18.0525L17.3948 18.0699L17.2751 18.0733L17.1502 18.0629L17.0184 18.0404L16.883 18.0075L16.7408 17.9659L16.5933 17.9121L16.4389 17.8497L16.2793 17.7769L16.1127 17.6954L15.9409 17.6053L15.7657 17.5047L15.5835 17.3973L15.3962 17.2794L15.2053 17.1546L15.0093 17.0211L14.8098 16.8807L14.6068 16.7316L14.3986 16.5756L14.1886 16.4126L13.977 16.241L13.7601 16.0624L13.5432 15.8787L13.3246 15.688L13.1025 15.4904L12.8805 15.2858L12.6584 15.0761L12.4346 14.8611L12.2108 14.6409ZM8.95945 9.0399L9.23878 9.319L9.21623 9.34674L9.19888 9.38141L9.18326 9.42995L9.17459 9.49062L9.17285 9.56689L9.17979 9.6553L9.19714 9.75585L9.22317 9.8668L9.2596 9.98814L9.30645 10.1199L9.3637 10.2586L9.43136 10.4059L9.50597 10.5602L9.59272 10.7214L9.6864 10.8896L9.7905 11.0647L9.90327 11.2432L10.0247 11.4287L10.1531 11.6177L10.2902 11.8118L10.4359 12.0112L10.5886 12.2123L10.7482 12.4186L10.9165 12.6266L11.09 12.8381L11.2722 13.0513L11.4595 13.2663L11.6539 13.4829L11.8551 13.7014L12.0616 13.9215L12.2732 14.1417L12.4901 14.3618L12.2108 14.6409L11.9904 14.4173L11.7736 14.1937L11.5654 13.9701L11.3606 13.7482L11.1629 13.528L10.972 13.3079L10.7881 13.0912L10.6094 12.8762L10.4394 12.663L10.2746 12.4532L10.1184 12.2469L9.9692 12.0424L9.82867 11.843L9.69508 11.6471L9.57016 11.4564L9.45392 11.2692L9.34462 11.0889L9.24572 10.9121L9.15377 10.7405L9.07223 10.5741L9.00109 10.4146L8.9369 10.2603L8.88485 10.113L8.84148 9.97081L8.80851 9.83559L8.78769 9.70384L8.77728 9.57903L8.78075 9.45942L8.7981 9.34327L8.83107 9.23232L8.88485 9.13004L8.95945 9.0399Z" fill="#FEFEFE"/>
<path d="M12.1951 12.2695L12.4172 12.0476L12.641 11.8326L12.8648 11.6229L13.0869 11.42L13.3072 11.2224L13.5276 11.03L13.7444 10.8462L13.9596 10.6677L14.173 10.4978L14.3829 10.3331L14.5894 10.1771L14.7924 10.028L14.9936 9.88759L15.1879 9.7541L15.3805 9.62929L15.5662 9.51314L15.7483 9.40393L15.9253 9.30512L16.097 9.21324L16.2619 9.13177L16.4215 9.06069L16.5759 8.99655L16.7234 8.94455L16.8656 8.90121L17.0027 8.86827L17.1328 8.84747L17.2577 8.83707L17.3792 8.8388L17.4954 8.85787L17.6047 8.89081L17.7088 8.94455L17.799 9.01909L17.518 9.29819L17.492 9.27565L17.4555 9.25831L17.4069 9.24271L17.3462 9.23405L17.2699 9.23231L17.1814 9.23925L17.0825 9.25658L16.9697 9.28258L16.8483 9.31899L16.7182 9.36579L16.5794 9.423L16.4319 9.49061L16.2775 9.56688L16.1144 9.65183L15.9478 9.74544L15.7726 9.84945L15.5939 9.96213L15.4083 10.0835L15.2192 10.2118L15.0248 10.3487L14.8253 10.4943L14.6241 10.6469L14.4176 10.8081L14.2094 10.9745L13.9977 11.1496L13.7843 11.3299L13.5692 11.5188L13.3523 11.713L13.1337 11.9124L12.9151 12.1186L12.6948 12.3301L12.4744 12.5486L12.1951 12.2695ZM8.94206 17.8705L8.86919 17.7786L8.81541 17.6763L8.78071 17.5671L8.76336 17.451L8.75989 17.3296L8.7703 17.2048L8.79285 17.0748L8.82582 16.9379L8.86746 16.7957L8.92124 16.6484L8.9837 16.4941L9.05657 16.3346L9.13811 16.1682L9.22833 15.9983L9.32896 15.8215L9.43652 15.6394L9.55277 15.4522L9.67942 15.2615L9.81128 15.0656L9.95354 14.8663L10.1027 14.6635L10.2589 14.4554L10.422 14.2457L10.5937 14.0325L10.7707 13.8175L10.9564 13.6008L11.1472 13.3807L11.345 13.1605L11.548 12.9386L11.7579 12.715L11.973 12.4931L12.1951 12.2695L12.4744 12.5486L12.2558 12.7687L12.0442 12.9889L11.8377 13.2073L11.6382 13.4257L11.4439 13.6424L11.2548 13.8591L11.0743 14.0723L10.8991 14.2838L10.7325 14.4918L10.5729 14.6964L10.4202 14.8992L10.2745 15.0968L10.1374 15.291L10.0073 15.4817L9.88761 15.6654L9.77484 15.8457L9.67074 16.0191L9.57532 16.1872L9.49031 16.3485L9.41397 16.5027L9.34804 16.6501L9.29079 16.7905L9.24394 16.9205L9.20751 17.0419L9.17975 17.1528L9.1624 17.2534L9.15546 17.3418L9.15719 17.418L9.1676 17.4787L9.18148 17.5273L9.20057 17.5637L9.22139 17.5897L8.94206 17.8705ZM14.546 14.6201L14.3222 14.8403L14.1001 15.0552L13.8763 15.265L13.6542 15.4696L13.4339 15.6672L13.2135 15.8579L12.9967 16.0416L12.7815 16.2202L12.5681 16.3901L12.3582 16.5547L12.1517 16.7108L11.947 16.8599L11.7475 17.0003L11.5514 17.1337L11.3606 17.2586L11.175 17.3764L10.9928 17.4839L10.8158 17.5845L10.6441 17.6746L10.4792 17.7561L10.3196 17.8289L10.1652 17.8913L10.016 17.9433L9.87547 17.9866L9.73841 18.0196L9.60829 18.0421L9.48163 18.0508L9.36192 18.0491L9.24568 18.0317L9.13637 17.997L9.03228 17.9433L8.94206 17.8705L9.22139 17.5897L9.24915 17.6122L9.28558 17.6313L9.33243 17.6451L9.39488 17.6555H9.46949L9.55797 17.6486L9.6586 17.633L9.77137 17.6053L9.89282 17.5689L10.0229 17.5221L10.1617 17.4649L10.3092 17.399L10.4636 17.3227L10.625 17.236L10.7933 17.1424L10.9685 17.0384L11.1472 16.9257L11.3328 16.8044L11.522 16.6761L11.7163 16.5391L11.9158 16.3935L12.117 16.241L12.3235 16.0815L12.5317 15.9133L12.7416 15.7383L12.9568 15.558L13.1719 15.3707L13.3888 15.1766L13.6074 14.9755L13.826 14.7692L14.0463 14.5577L14.2667 14.3393L14.546 14.6201ZM17.799 9.01909L17.8719 9.10923L17.9257 9.21151L17.9604 9.32246L17.9778 9.43687L17.9795 9.55822L17.9708 9.68303L17.9483 9.81478L17.9153 9.94999L17.8719 10.0921L17.8199 10.2395L17.7574 10.3938L17.6845 10.5533L17.603 10.7197L17.5128 10.8913L17.4122 11.0664L17.3046 11.2484L17.1866 11.4356L17.0617 11.6263L16.9298 11.8222L16.7876 12.0216L16.6384 12.2261L16.4822 12.4324L16.3191 12.6422L16.1474 12.8554L15.9704 13.0704L15.7848 13.287L15.5939 13.5072L15.3961 13.7274L15.1931 13.9493L14.9832 14.1729L14.7681 14.3965L14.546 14.6201L14.2667 14.3393L14.4853 14.1191L14.6969 13.9007L14.9034 13.6806L15.1029 13.4621L15.2972 13.2454L15.4846 13.0305L15.6668 12.8173L15.8403 12.6058L16.0086 12.3977L16.1682 12.1915L16.3209 11.9904L16.4666 11.791L16.6037 11.5968L16.7338 11.4079L16.8535 11.2224L16.9663 11.0421L17.0704 10.8688L17.1658 10.7006L17.2508 10.5394L17.3271 10.3851L17.3931 10.2378L17.4503 10.0991L17.4972 9.96733L17.5336 9.84598L17.5614 9.73504L17.577 9.63449L17.5856 9.54608L17.5839 9.46981L17.5735 9.40913L17.5596 9.36059L17.5405 9.32592L17.518 9.29819L17.799 9.01909Z" fill="#FEFEFE"/>
<path d="M13.3697 14.0273C13.6983 14.0273 13.9648 13.7665 13.9648 13.4448C13.9648 13.1231 13.6983 12.8623 13.3697 12.8623C13.041 12.8623 12.7746 13.1231 12.7746 13.4448C12.7746 13.7665 13.041 14.0273 13.3697 14.0273Z" fill="#FEFEFE"/>
<path d="M35.16 19.228C34.408 19.228 33.744 19.104 33.168 18.856C32.6 18.6 32.12 18.26 31.728 17.836C31.344 17.404 31.052 16.92 30.852 16.384C30.66 15.84 30.564 15.276 30.564 14.692V14.428C30.564 13.876 30.66 13.336 30.852 12.808C31.044 12.28 31.324 11.804 31.692 11.38C32.068 10.956 32.528 10.62 33.072 10.372C33.624 10.116 34.256 9.988 34.968 9.988C35.736 9.988 36.416 10.132 37.008 10.42C37.6 10.7 38.076 11.096 38.436 11.608C38.796 12.112 39.008 12.7 39.072 13.372H37.356C37.3 12.996 37.16 12.676 36.936 12.412C36.712 12.14 36.428 11.932 36.084 11.788C35.748 11.644 35.376 11.572 34.968 11.572C34.56 11.572 34.188 11.644 33.852 11.788C33.524 11.932 33.244 12.136 33.012 12.4C32.78 12.664 32.6 12.98 32.472 13.348C32.352 13.716 32.292 14.124 32.292 14.572C32.292 15.06 32.36 15.496 32.496 15.88C32.632 16.264 32.824 16.592 33.072 16.864C33.32 17.128 33.62 17.332 33.972 17.476C34.324 17.612 34.72 17.68 35.16 17.68C35.744 17.68 36.256 17.56 36.696 17.32C37.136 17.072 37.456 16.752 37.656 16.36L37.356 17.74V15.484H38.928V17.428C38.552 17.996 38.04 18.44 37.392 18.76C36.744 19.072 36 19.228 35.16 19.228ZM34.884 15.82V14.548H39.66V15.82H34.884ZM41.2444 19V12.484H42.9124V19H41.2444ZM40.3324 13.732V12.484H42.9124V13.732H40.3324ZM41.8564 11.704C41.5284 11.704 41.2844 11.62 41.1244 11.452C40.9724 11.276 40.8964 11.06 40.8964 10.804C40.8964 10.532 40.9724 10.312 41.1244 10.144C41.2844 9.976 41.5284 9.892 41.8564 9.892C42.1844 9.892 42.4244 9.976 42.5764 10.144C42.7284 10.312 42.8044 10.532 42.8044 10.804C42.8044 11.06 42.7284 11.276 42.5764 11.452C42.4244 11.62 42.1844 11.704 41.8564 11.704ZM47.6667 19.084C47.0667 19.084 46.5707 19.008 46.1787 18.856C45.7947 18.696 45.5067 18.432 45.3147 18.064C45.1227 17.688 45.0267 17.184 45.0267 16.552L45.0387 10.648H46.5987L46.5867 16.66C46.5867 16.98 46.6707 17.228 46.8387 17.404C47.0147 17.572 47.2627 17.656 47.5827 17.656H48.6027V19.084H47.6667ZM43.9947 13.708V12.484H48.6027V13.708H43.9947ZM52.3198 19.204C51.4238 19.204 50.7198 19.016 50.2078 18.64C49.7038 18.256 49.4398 17.728 49.4158 17.056H50.9158C50.9398 17.28 51.0638 17.484 51.2878 17.668C51.5118 17.852 51.8638 17.944 52.3438 17.944C52.7438 17.944 53.0598 17.872 53.2918 17.728C53.5318 17.584 53.6518 17.388 53.6518 17.14C53.6518 16.924 53.5598 16.752 53.3758 16.624C53.1998 16.496 52.8958 16.412 52.4638 16.372L51.8878 16.312C51.1598 16.232 50.5998 16.024 50.2078 15.688C49.8158 15.352 49.6198 14.904 49.6198 14.344C49.6198 13.896 49.7318 13.52 49.9558 13.216C50.1798 12.912 50.4878 12.684 50.8798 12.532C51.2798 12.372 51.7358 12.292 52.2478 12.292C53.0478 12.292 53.6958 12.468 54.1918 12.82C54.6878 13.172 54.9478 13.688 54.9718 14.368H53.4718C53.4558 14.144 53.3438 13.952 53.1358 13.792C52.9278 13.632 52.6278 13.552 52.2358 13.552C51.8838 13.552 51.6118 13.62 51.4198 13.756C51.2278 13.892 51.1318 14.068 51.1318 14.284C51.1318 14.492 51.2078 14.652 51.3598 14.764C51.5198 14.876 51.7758 14.952 52.1278 14.992L52.7038 15.052C53.4718 15.132 54.0718 15.344 54.5038 15.688C54.9438 16.032 55.1638 16.496 55.1638 17.08C55.1638 17.512 55.0438 17.888 54.8038 18.208C54.5718 18.52 54.2438 18.764 53.8198 18.94C53.3958 19.116 52.8958 19.204 52.3198 19.204ZM56.5418 19V10.24H58.2098V15.352H57.9218C57.9218 14.696 58.0058 14.14 58.1738 13.684C58.3418 13.228 58.5898 12.88 58.9178 12.64C59.2538 12.4 59.6778 12.28 60.1898 12.28H60.2618C61.0058 12.28 61.5698 12.536 61.9538 13.048C62.3378 13.56 62.5298 14.304 62.5298 15.28V19H60.8618V15.124C60.8618 14.708 60.7418 14.38 60.5018 14.14C60.2698 13.9 59.9618 13.78 59.5778 13.78C59.1698 13.78 58.8378 13.916 58.5818 14.188C58.3338 14.452 58.2098 14.8 58.2098 15.232V19H56.5418ZM67.455 19.228C66.879 19.228 66.371 19.136 65.931 18.952C65.491 18.768 65.119 18.52 64.815 18.208C64.511 17.888 64.279 17.528 64.119 17.128C63.967 16.728 63.891 16.312 63.891 15.88V15.628C63.891 15.18 63.971 14.756 64.131 14.356C64.299 13.948 64.535 13.588 64.839 13.276C65.151 12.956 65.527 12.708 65.967 12.532C66.407 12.348 66.903 12.256 67.455 12.256C68.007 12.256 68.503 12.348 68.943 12.532C69.383 12.708 69.755 12.956 70.059 13.276C70.371 13.588 70.607 13.948 70.767 14.356C70.927 14.756 71.007 15.18 71.007 15.628V15.88C71.007 16.312 70.927 16.728 70.767 17.128C70.615 17.528 70.387 17.888 70.083 18.208C69.779 18.52 69.407 18.768 68.967 18.952C68.527 19.136 68.023 19.228 67.455 19.228ZM67.455 17.8C67.863 17.8 68.207 17.712 68.487 17.536C68.767 17.352 68.979 17.108 69.123 16.804C69.267 16.492 69.339 16.14 69.339 15.748C69.339 15.348 69.263 14.996 69.111 14.692C68.967 14.38 68.751 14.136 68.463 13.96C68.183 13.776 67.847 13.684 67.455 13.684C67.063 13.684 66.723 13.776 66.435 13.96C66.155 14.136 65.939 14.38 65.787 14.692C65.635 14.996 65.559 15.348 65.559 15.748C65.559 16.14 65.631 16.492 65.775 16.804C65.927 17.108 66.143 17.352 66.423 17.536C66.703 17.712 67.047 17.8 67.455 17.8ZM75.3595 19.228C74.7915 19.228 74.2995 19.132 73.8835 18.94C73.4755 18.748 73.1315 18.492 72.8515 18.172C72.5795 17.852 72.3755 17.492 72.2395 17.092C72.1035 16.692 72.0355 16.284 72.0355 15.868V15.64C72.0355 15.2 72.1035 14.78 72.2395 14.38C72.3835 13.972 72.5955 13.612 72.8755 13.3C73.1555 12.98 73.4995 12.728 73.9075 12.544C74.3235 12.352 74.8035 12.256 75.3475 12.256C75.9155 12.256 76.4235 12.368 76.8715 12.592C77.3195 12.808 77.6755 13.112 77.9395 13.504C78.2115 13.896 78.3635 14.352 78.3955 14.872H76.7755C76.7355 14.536 76.5915 14.256 76.3435 14.032C76.1035 13.808 75.7715 13.696 75.3475 13.696C74.9795 13.696 74.6715 13.784 74.4235 13.96C74.1835 14.136 74.0035 14.38 73.8835 14.692C73.7635 14.996 73.7035 15.348 73.7035 15.748C73.7035 16.132 73.7595 16.48 73.8715 16.792C73.9915 17.104 74.1715 17.348 74.4115 17.524C74.6595 17.7 74.9755 17.788 75.3595 17.788C75.6475 17.788 75.8955 17.736 76.1035 17.632C76.3115 17.528 76.4755 17.384 76.5955 17.2C76.7235 17.016 76.8035 16.808 76.8355 16.576H78.4555C78.4235 17.104 78.2675 17.568 77.9875 17.968C77.7155 18.36 77.3515 18.668 76.8955 18.892C76.4475 19.116 75.9355 19.228 75.3595 19.228ZM84.3518 19L82.1678 15.952H81.1958L83.9678 12.484H85.7078L83.1518 15.688L83.1878 14.848L86.2358 19H84.3518ZM79.7918 19V10.24H81.4598V19H79.7918ZM92.9078 19.228C92.1318 19.228 91.4758 19.104 90.9398 18.856C90.4118 18.608 90.0078 18.268 89.7278 17.836C89.4478 17.396 89.3078 16.9 89.3078 16.348H90.9758C90.9758 16.58 91.0398 16.808 91.1678 17.032C91.2958 17.248 91.4998 17.424 91.7798 17.56C92.0678 17.696 92.4438 17.764 92.9078 17.764C93.3238 17.764 93.6718 17.704 93.9518 17.584C94.2318 17.464 94.4398 17.308 94.5758 17.116C94.7118 16.916 94.7798 16.692 94.7798 16.444C94.7798 16.132 94.6478 15.884 94.3838 15.7C94.1198 15.508 93.7118 15.388 93.1598 15.34L92.3918 15.28C91.5518 15.208 90.8798 14.948 90.3758 14.5C89.8798 14.044 89.6318 13.444 89.6318 12.7C89.6318 12.14 89.7638 11.66 90.0278 11.26C90.2918 10.852 90.6598 10.54 91.1318 10.324C91.6118 10.1 92.1718 9.988 92.8118 9.988C93.4758 9.988 94.0478 10.104 94.5278 10.336C95.0078 10.568 95.3798 10.896 95.6438 11.32C95.9078 11.736 96.0398 12.228 96.0398 12.796H94.3718C94.3718 12.556 94.3118 12.336 94.1918 12.136C94.0798 11.928 93.9078 11.764 93.6758 11.644C93.4518 11.516 93.1638 11.452 92.8118 11.452C92.4758 11.452 92.1958 11.508 91.9718 11.62C91.7478 11.732 91.5798 11.884 91.4678 12.076C91.3558 12.268 91.2998 12.476 91.2998 12.7C91.2998 12.972 91.3998 13.212 91.5998 13.42C91.7998 13.62 92.1158 13.736 92.5478 13.768L93.3158 13.84C93.9398 13.888 94.4878 14.02 94.9598 14.236C95.4318 14.452 95.7958 14.744 96.0518 15.112C96.3158 15.48 96.4478 15.924 96.4478 16.444C96.4478 16.996 96.3038 17.484 96.0158 17.908C95.7278 18.324 95.3158 18.648 94.7798 18.88C94.2518 19.112 93.6278 19.228 92.9078 19.228ZM100.766 19.228C100.198 19.228 99.7058 19.132 99.2898 18.94C98.8818 18.748 98.5378 18.492 98.2578 18.172C97.9858 17.852 97.7818 17.492 97.6458 17.092C97.5098 16.692 97.4418 16.284 97.4418 15.868V15.64C97.4418 15.2 97.5098 14.78 97.6458 14.38C97.7898 13.972 98.0018 13.612 98.2818 13.3C98.5618 12.98 98.9058 12.728 99.3138 12.544C99.7298 12.352 100.21 12.256 100.754 12.256C101.322 12.256 101.83 12.368 102.278 12.592C102.726 12.808 103.082 13.112 103.346 13.504C103.618 13.896 103.77 14.352 103.802 14.872H102.182C102.142 14.536 101.998 14.256 101.75 14.032C101.51 13.808 101.178 13.696 100.754 13.696C100.386 13.696 100.078 13.784 99.8298 13.96C99.5898 14.136 99.4098 14.38 99.2898 14.692C99.1698 14.996 99.1098 15.348 99.1098 15.748C99.1098 16.132 99.1658 16.48 99.2778 16.792C99.3978 17.104 99.5778 17.348 99.8178 17.524C100.066 17.7 100.382 17.788 100.766 17.788C101.054 17.788 101.302 17.736 101.51 17.632C101.718 17.528 101.882 17.384 102.002 17.2C102.13 17.016 102.21 16.808 102.242 16.576H103.862C103.83 17.104 103.674 17.568 103.394 17.968C103.122 18.36 102.758 18.668 102.302 18.892C101.854 19.116 101.342 19.228 100.766 19.228ZM109.146 19V17.068H108.87V14.92C108.87 14.544 108.778 14.264 108.594 14.08C108.41 13.896 108.126 13.804 107.742 13.804C107.542 13.804 107.302 13.808 107.022 13.816C106.742 13.824 106.458 13.836 106.17 13.852C105.89 13.86 105.638 13.872 105.414 13.888V12.472C105.598 12.456 105.806 12.44 106.038 12.424C106.27 12.408 106.506 12.4 106.746 12.4C106.994 12.392 107.226 12.388 107.442 12.388C108.114 12.388 108.67 12.476 109.11 12.652C109.558 12.828 109.894 13.104 110.118 13.48C110.35 13.856 110.466 14.348 110.466 14.956V19H109.146ZM107.046 19.168C106.574 19.168 106.158 19.084 105.798 18.916C105.446 18.748 105.17 18.508 104.97 18.196C104.778 17.884 104.682 17.508 104.682 17.068C104.682 16.588 104.798 16.196 105.03 15.892C105.27 15.588 105.602 15.36 106.026 15.208C106.458 15.056 106.962 14.98 107.538 14.98H109.05V15.976H107.514C107.13 15.976 106.834 16.072 106.626 16.264C106.426 16.448 106.326 16.688 106.326 16.984C106.326 17.28 106.426 17.52 106.626 17.704C106.834 17.888 107.13 17.98 107.514 17.98C107.746 17.98 107.958 17.94 108.15 17.86C108.35 17.772 108.514 17.628 108.642 17.428C108.778 17.22 108.854 16.94 108.87 16.588L109.278 17.056C109.238 17.512 109.126 17.896 108.942 18.208C108.766 18.52 108.518 18.76 108.198 18.928C107.886 19.088 107.502 19.168 107.046 19.168ZM112.253 19V12.484H113.573V15.28H113.453C113.453 14.616 113.541 14.064 113.717 13.624C113.893 13.176 114.153 12.84 114.497 12.616C114.849 12.392 115.285 12.28 115.805 12.28H115.877C116.653 12.28 117.241 12.532 117.641 13.036C118.041 13.532 118.241 14.276 118.241 15.268V19H116.573V15.124C116.573 14.724 116.457 14.4 116.225 14.152C116.001 13.904 115.689 13.78 115.289 13.78C114.881 13.78 114.549 13.908 114.293 14.164C114.045 14.412 113.921 14.748 113.921 15.172V19H112.253Z" fill="url(#paint1_linear_73_61)"/>
<defs>
<linearGradient id="paint0_linear_73_61" x1="24.0004" y1="13.5002" x2="3" y2="13.5002" gradientUnits="userSpaceOnUse">
<stop stop-color="#D717FF"/>
<stop offset="1" stop-color="#3377FF"/>
</linearGradient>
<linearGradient id="paint1_linear_73_61" x1="46.8224" y1="15" x2="118.318" y2="15" gradientUnits="userSpaceOnUse">
<stop stop-color="#0069FF"/>
<stop offset="0.722315" stop-color="#D856C1"/>
</linearGradient>
</defs>
</svg>
